HIERARCHY
ROOT Hips
{
  OFFSET 263.056 91.6644 -274.608
  CHANNELS 6 Xposition Yposition Zposition Zrotation Xrotation Yrotation
  JOINT LeftUpLeg
  {
    OFFSET 8.64259 1.95398 -2.38835
    CHANNELS 3 Zrotation Xrotation Yrotation
    JOINT LeftLeg
    {
      OFFSET 43.7702 0 0
      CHANNELS 3 Zrotation Xrotation Yrotation
      JOINT LeftFoot
      {
        OFFSET 40.6238 0 0
        CHANNELS 3 Zrotation Xrotation Yrotation
        JOINT LeftToeBase
        {
          OFFSET 12.7242 0 0
          CHANNELS 3 Zrotation Xrotation Yrotation
          End Site
          {
            OFFSET 0 0 0
          }
        }
      }
    }
  }
  JOINT RightUpLeg
  {
    OFFSET -8.2249 1.95398 -2.59336
    CHANNELS 3 Zrotation Xrotation Yrotation
    JOINT RightLeg
    {
      OFFSET 43.5653 0 0
      CHANNELS 3 Zrotation Xrotation Yrotation
      JOINT RightFoot
      {
        OFFSET 40.6238 0 0
        CHANNELS 3 Zrotation Xrotation Yrotation
        JOINT RightToeBase
        {
          OFFSET 12.7242 0 0
          CHANNELS 3 Zrotation Xrotation Yrotation
          End Site
          {
            OFFSET 0 0 0
          }
        }
      }
    }
  }
  JOINT Spine
  {
    OFFSET 0.165834 0.87714 6.61349
    CHANNELS 3 Zrotation Xrotation Yrotation
    JOINT Spine1
    {
      OFFSET 7.38963 1.71661e-005 0
      CHANNELS 3 Zrotation Xrotation Yrotation
      JOINT Spine2
      {
        OFFSET 11.9445 1.14441e-005 0
        CHANNELS 3 Zrotation Xrotation Yrotation
        JOINT Spine3
        {
          OFFSET 14.7254 4.19617e-005 0
          CHANNELS 3 Zrotation Xrotation Yrotation
          JOINT Spine4
          {
            OFFSET 10.9679 0 0
            CHANNELS 3 Zrotation Xrotation Yrotation
            JOINT RightShoulder
            {
              OFFSET 2.46616 -1.6653 3.69651
              CHANNELS 3 Zrotation Xrotation Yrotation
              JOINT RightArm
              {
                OFFSET 13.0012 0 0
                CHANNELS 3 Zrotation Xrotation Yrotation
                JOINT RightForeArm
                {
                  OFFSET 28.7848 1.52588e-005 0
                  CHANNELS 3 Zrotation Xrotation Yrotation
                  JOINT RightHand
                  {
                    OFFSET 26.5688 1.52588e-005 0
                    CHANNELS 3 Zrotation Xrotation Yrotation
                    End Site
                    {
                      OFFSET 0 0 0
                    }
                  }
                }
              }
            }
            JOINT LeftShoulder
            {
              OFFSET 2.38034 -1.29275 -3.7523
              CHANNELS 3 Zrotation Xrotation Yrotation
              JOINT LeftArm
              {
                OFFSET 16.3182 6.10352e-005 0
                CHANNELS 3 Zrotation Xrotation Yrotation
                JOINT LeftForeArm
                {
                  OFFSET 27.0901 0 0
                  CHANNELS 3 Zrotation Xrotation Yrotation
                  JOINT LeftHand
                  {
                    OFFSET 24.5451 1.52588e-005 0
                    CHANNELS 3 Zrotation Xrotation Yrotation
                    End Site
                    {
                      OFFSET 0 0 0
                    }
                  }
                }
              }
            }
            JOINT Neck
            {
              OFFSET 5.0226 -0.0266342 0
              CHANNELS 3 Zrotation Xrotation Yrotation
              JOINT Head
              {
                OFFSET 6.69364 2.86102e-005 0
                CHANNELS 3 Zrotation Xrotation Yrotation
                End Site
                {
                  OFFSET 0 0 0
                }
              }
            }
          }
        }
      }
    }
  }
}
MOTION
Frames:	17
Frame Time:	0.0416667
-5.01674 92.4409 7.20791 65.6654 -45.5767 74.6173 -166.63 50.2202 88.6715 -34.5504 15.4738 -7.25863 51.69 -6.62677 2.5059 50.611 26.9043 8.95618 178.008 -0.0108407 90.0241 -56.9702 10.1119 -3.99182 34.6262 3.23227 3.97562 16.8582 -1.65262 5.35964 1.42812 8.59633 -89.4307 9.6701 3.10431 0.888372 -1.99735 3.14038 0.750738 -24.5538 2.69373 1.78078 -4.54114 2.69372 1.78078 84.282 -44.183 -111.556 31.6951 -14.8305 8.18888 -15.1505 7.43826 -98.1602 -27.5022 -1.36433 0.907628 -98.3023 -41.0979 63.1239 -41.4464 -0.933288 35.1235 5.64508 -2.65642 -82.0082 35.551 2.32668 2.65814 -5.24392 -4.10266 -5.83268 19.8115 -3.2401 1.16683 
1.90153 91.3597 14.0466 70.2169 -45.5079 76.1541 -166.715 41.5468 86.7018 -38.0965 18.0193 -7.64592 58.9578 3.08619 12.312 48.3146 19.3363 -9.04893 175.964 9.27208 91.8235 -78.0616 14.9193 -3.93511 37.1192 1.15782 1.79487 16.4391 -1.85989 6.31101 0.903049 9.01361 -89.1471 8.83006 2.18092 1.5426 -2.83987 2.2467 1.44511 -25.3767 1.61657 2.12667 -5.36407 1.61657 2.12667 81.6566 -48.0293 -114.186 30.5826 -15.0925 13.3851 -19.6762 -1.85384 -88.2695 -30.2954 -1.61446 1.71044 -100.183 -42.9888 60.9584 -36.232 -3.09996 28.8947 7.39224 -2.28236 -84.7607 36.1692 2.82908 3.95809 -4.66749 -2.53667 -6.83018 20.0211 -1.41456 1.86485 
8.89749 89.9656 20.6526 71.0793 -44.2355 74.8586 -166.854 36.4162 83.6565 -43.9501 10.8534 -6.71278 67.0695 12.3403 13.7061 46.294 16.9461 -11.9174 173.804 22.0121 90.2132 -94.7279 17.0036 -4.24445 37.1281 -0.503259 0.222026 21.5965 -1.47311 8.2317 0.3318 9.02946 -88.8915 8.79942 1.1547 2.11653 -2.87264 1.24672 2.06368 -25.3951 0.465414 2.36558 -5.38242 0.465415 2.36558 80.7341 -49.8262 -114.874 32.0477 -16.2463 19.647 -15.9542 -1.54417 -76.2246 -31.6017 -1.64377 1.48652 -101.897 -43.2938 58.4567 -31.7377 -4.87505 22.3506 10.1276 -2.27488 -89.2911 36.0797 3.56605 6.0942 -2.62543 -1.57742 -7.0169 18.1811 -0.336206 1.98823 
15.5973 88.876 27.0489 69.4328 -40.5616 72.4047 -169.453 32.9624 81.2138 -45.6092 12.093 -4.58981 66.8653 15.5964 18.6913 52.4973 22.9035 -10.1482 170.868 37.7644 92.0831 -105.521 14.0086 -4.76179 35.956 -0.0761242 0.576752 27.4523 -0.496838 5.56121 -0.366613 8.80162 -88.7583 9.26596 -0.174183 2.4727 -2.40735 -0.0652342 2.47796 -24.9256 -0.909084 2.30619 -4.91297 -0.909092 2.3062 79.0894 -50.4714 -117.042 34.638 -15.6515 28.5308 -11.393 -3.40623 -69.8455 -32.3321 -1.35659 0.158066 -101.26 -41.2045 58.4932 -28.4049 -3.54482 14.2664 11.0475 -2.73566 -94.165 36.5988 4.22206 7.77753 0.263369 -0.894615 -6.75031 16.1726 0.332823 1.39492 
23.043 89.0632 33.4869 69.5882 -38.2983 72.8325 -172.332 24.9598 82.351 -41.3647 17.2463 -3.31827 64.1708 15.6035 22.2246 58.5516 28.5113 -9.73038 168.851 49.0688 95.0857 -107.962 12.1914 -4.85127 39.3864 0.367657 0.873632 31.4209 0.00812983 3.9794 -0.793272 8.69987 -88.8899 9.48001 -1.08183 2.28146 -2.19256 -0.98039 2.32683 -24.72 -1.71738 1.85106 -4.70739 -1.71737 1.85107 77.8791 -51.3678 -118.431 36.7044 -15.1725 38.0021 -9.8256 -4.35358 -67.9824 -30.287 -1.1687 -0.27133 -98.7378 -38.7848 61.4333 -26.7255 -3.4406 6.22893 11.8364 -3.50604 -101.017 40.8411 4.21903 6.47392 -0.0090929 -0.170671 -6.5838 16.0081 1.08352 1.87818 
30.6274 90.4092 40.1589 71.2317 -39.4826 75.2089 -173.169 14.013 85.2796 -34.5442 19.2632 -2.30375 61.9829 11.6446 17.873 59.9842 30.8312 -7.14511 169.795 55.537 97.5248 -103.28 9.71721 -4.41669 43.6944 0.932235 1.21522 30.4848 -0.0860268 4.02124 -0.917298 8.68873 -89.0937 9.50465 -1.42067 1.9046 -2.16701 -1.33548 1.96526 -24.7016 -1.92733 1.38966 -4.68899 -1.92735 1.38965 78.2583 -52.0462 -117.602 38.962 -16.444 46.4195 -10.206 -4.79706 -68.4367 -26.5332 -0.987241 -0.459997 -96.1025 -36.7697 64.9551 -27.5111 -5.5928 3.10926 12.5588 -5.28751 -112.638 41.2904 4.44938 6.936 -2.57569 0.892082 -6.59482 16.0607 2.23583 3.35172 
38.8753 92.5477 47.0127 71.7464 -39.8889 77.8396 -173.396 3.05448 89.2807 -22.7975 22.1494 -0.742082 53.6443 -0.111088 6.06286 60.7719 35.0226 0.713822 169.993 58.999 99.38 -92.2752 5.79825 -3.17219 44.5275 2.39182 2.42274 31.3854 0.0985625 1.53523 -1.13557 8.54895 -89.4041 9.78771 -1.9936 1.3412 -1.88246 -1.93266 1.42763 -24.4282 -2.30449 0.679823 -4.4155 -2.30449 0.679817 77.5659 -51.2884 -118.916 42.3666 -16.4877 54.1747 -9.22093 -4.20377 -69.1994 -26.0025 -0.919659 -0.736871 -93.5515 -35.1264 68.6906 -28.3786 -6.15049 1.78307 12.8111 -7.86769 -123.353 37.5366 4.07066 7.05694 -5.94164 2.50133 -5.68748 16.6453 3.73248 4.24062 
47.2224 94.3428 54.111 73.1489 -38.9022 80.0467 -172.923 -8.74472 92.3817 -8.10707 25.7793 0.154527 36.2183 -13.092 -5.38572 51.7702 27.9616 8.01183 170.081 58.7685 98.2926 -77.4918 5.55362 -0.619343 44.9989 3.19709 3.11097 28.4096 -0.194693 2.60324 -1.48505 8.48872 -89.702 9.90831 -2.82459 0.820471 -1.75991 -2.7857 0.944085 -24.3197 -2.94046 -0.0670809 -4.30711 -2.94046 -0.0670774 77.178 -49.7427 -120.149 45.2208 -14.5246 60.1496 -9.06112 -3.4096 -70.6636 -24.6571 -0.698092 -1.6279 -92.3912 -34.6976 70.5747 -28.6759 -5.86066 2.06932 11.2116 -10.0138 -133.492 34.5024 3.43551 6.17965 -9.08972 3.81467 -3.50342 16.9369 4.72741 4.04841 
55.6743 95.8735 62.0543 73.1981 -37.7729 80.6231 -173.388 -12.649 94.2729 -10.2281 31.2904 0.88429 33.4621 -15.2824 -3.37826 32.5441 3.98251 6.68193 172.861 56.5142 95.3011 -59.2313 4.39931 2.03623 42.5871 4.17479 4.13974 23.1737 -0.789895 4.01149 -1.74904 8.34864 -89.9176 10.1862 -3.44743 0.45551 -1.4803 -3.42403 0.60696 -24.0516 -3.42473 -0.602891 -4.03898 -3.42474 -0.602898 78.3423 -47.6358 -119.358 47.4896 -12.6972 63.2541 -10.6881 -2.80848 -72.1539 -22.7262 -0.427633 -2.751 -92.1848 -35.2615 71.138 -28.5704 -3.44308 2.63183 9.71412 -12.1453 -141.059 32.0186 2.93148 5.38059 -11.8727 4.57154 -3.34079 17.9277 5.85149 6.27999 
63.7351 96.1835 70.0819 71.5714 -37.6244 77.1771 -176.766 -9.92669 91.0561 -26.2369 24.5138 2.42736 37.6659 -12.2572 -1.63196 30.7281 1.63537 6.92224 178.692 54.3598 90.0215 -40.7394 2.76086 2.23693 43.9642 4.46808 4.29887 20.3902 -1.06598 3.96906 -1.87739 8.05993 -89.7591 10.7717 -3.62733 0.812824 -0.894503 -3.58804 0.971871 -23.4705 -3.70369 -0.316433 -3.45782 -3.70368 -0.316432 79.0122 -47.2999 -118.496 47.4391 -10.7194 64.3362 -11.2187 -1.62821 -74.6578 -22.4447 -0.366845 -3.06757 -91.5224 -35.6847 72.443 -30.5261 3.80371 3.23727 11.4505 -16.7714 -141.643 30.7314 3.00609 6.01836 -13.531 4.87073 -2.75973 19.3143 6.19321 6.3935 
71.248 96.1424 77.9178 72.0226 -38.6284 74.5655 -178.004 -6.4051 88.5269 -44.0203 19.3916 2.44184 37.6068 -13.3391 -3.54267 29.9988 0.548106 8.42327 -177.584 49.1106 87.3214 -25.2778 3.19024 0.590551 45.9267 4.45092 4.10979 20.3275 -0.87535 2.55034 -1.72194 8.03188 -89.5392 10.8301 -3.21584 1.2173 -0.837569 -3.15915 1.35776 -23.4043 -3.43285 0.193477 -3.39167 -3.43286 0.193478 79.7473 -47.9185 -117.122 45.0968 -8.32021 62.1128 -9.85949 -0.611639 -76.5976 -22.3623 -0.436401 -2.76135 -92.6917 -36.5034 70.685 -32.8019 8.22888 5.89173 13.0723 -17.169 -135.073 31.4931 3.14122 6.2138 -13.8224 4.36142 -2.21723 18.7943 5.60667 6.22848 
79.095 95.873 85.4305 74.0294 -39.5644 74.7394 -177.537 -1.8595 87.8029 -62.106 18.162 1.5374 37.3019 -14.1444 -3.38696 26.9701 -3.95937 11.3786 -178.122 44.1039 87.5645 -21.1515 3.61857 0.48387 43.7226 4.95559 4.73199 22.9789 -0.609744 2.20196 -1.44865 8.15914 -89.5725 10.5699 -2.68874 1.09115 -1.09884 -2.63813 1.20849 -23.656 -2.8923 0.232001 -3.64333 -2.89229 0.232014 80.0143 -49.1777 -116.202 41.197 -6.86944 57.4216 -7.28469 -0.106063 -77.7302 -23.2994 -0.380676 -3.21271 -95.244 -38.5665 67.104 -33.9512 9.0916 9.5135 13.6889 -13.7291 -123.723 32.6181 3.45292 6.83893 -15.9247 3.12738 -0.27769 20.1817 4.17353 5.0737 
87.038 95.0517 92.982 76.2739 -39.9703 76.5685 -175.613 4.59652 88.8097 -78.9829 16.3434 0.713931 37.7872 -13.6613 -1.38594 27.1748 -2.45908 4.26262 179.963 38.5631 89.2766 -24.1374 2.982 1.29216 45.3629 4.0822 3.90581 25.0344 -0.761114 5.25357 -1.15766 8.34658 -89.7236 10.1887 -2.18054 0.733618 -1.48065 -2.14615 0.828901 -24.0305 -2.30016 0.0440264 -4.01784 -2.30016 0.0440155 79.1517 -52.4511 -116.155 35.6169 -6.84544 51.0005 -6.9123 0.358042 -80.0195 -24.174 -0.538871 -2.53608 -96.42 -40.3502 65.8509 -35.1903 9.98672 12.4502 13.8126 -9.41123 -110.212 34.1473 3.28238 5.8308 -17.5967 2.00557 0.484947 21.4677 2.95178 4.30258 
94.4136 94.2343 100.371 79.3935 -39.3307 79.2346 -174.349 13.3515 91.7083 -92.9839 13.3479 0.63801 37.9288 -12.3041 -0.720714 25.9768 -4.29602 6.27598 177.373 33.209 91.0495 -33.9237 3.31194 2.96466 61.414 -0.27976 -0.0207292 25.9134 -1.27851 12.3805 -0.97109 8.59479 -89.8723 9.68857 -1.87811 0.399775 -1.98108 -1.85871 0.48206 -24.5272 -1.9114 -0.183371 -4.51461 -1.91141 -0.183379 78.8554 -53.4676 -116.181 32.1947 -6.83188 42.1761 -6.33441 0.701708 -81.177 -25.6297 -0.488131 -2.94362 -96.1899 -41.2973 66.5851 -37.2701 11.3718 15.3191 14.6653 -7.4199 -94.6417 37.3534 3.52288 5.60058 -17.1642 0.663115 1.53926 20.2746 1.22776 2.68021 
101.272 93.5497 107.363 80.4542 -38.8944 80.5092 -173.296 25.4375 92.4343 -102.179 12.2071 0.759542 38.338 -10.9567 -0.660684 28.1083 -1.45089 5.19197 176.635 28.7037 92.6647 -40.3395 3.29528 2.7429 69.3045 -2.82918 -1.46931 31.3829 -0.267578 10.2362 -0.579976 8.72557 -89.9342 9.42405 -1.12677 0.215302 -2.24643 -1.11621 0.264676 -24.7856 -1.13939 -0.133343 -4.77291 -1.13939 -0.133352 79.1021 -52.4063 -116.244 31.7843 -4.17347 32.3341 -7.53068 1.26927 -83.6435 -29.4992 -0.757573 -2.13241 -96.5248 -41.1794 66.0008 -38.5934 12.1162 19.7672 13.459 0.37122 -85.7224 38.854 3.7355 5.77485 -14.0162 -0.761309 0.331904 16.9197 -0.252209 2.9096 
108.105 93.6758 114.504 77.9453 -41.0745 78.6097 -169.28 37.8379 90.7743 -103.124 14.8888 0.344857 40.3254 -10.5772 0.116249 29.404 -0.0427945 6.86841 177.336 23.9084 93.9157 -40.5144 3.96129 1.25745 70.765 -3.66423 -1.86154 37.8582 0.777841 12.8674 0.0728737 8.58397 -89.9033 9.70571 0.189039 0.176977 -1.96523 0.196663 0.168482 -24.5004 0.127121 0.225626 -4.4877 0.127118 0.22562 81.9808 -47.1203 -114.044 34.9187 -0.587993 24.8209 -9.28957 1.80369 -92.7384 -28.774 -1.01126 -0.970955 -98.2645 -41.3738 63.2952 -40.2571 11.2618 26.6378 8.56652 -1.35713 -80.8207 41.8004 3.62302 4.76507 -11.3026 -2.74101 0.578371 14.3865 -2.42849 2.13578 
115.091 94.3169 122.335 76.7942 -44.0914 77.3415 -166.122 45.7995 89.321 -97.1869 18.7162 -0.596226 45.0518 -9.623 -0.363122 31.1019 1.81307 10.5292 178.385 15.8475 93.9891 -36.5836 -0.540346 -0.407473 67.7782 -3.26164 -1.75208 44.1414 1.81641 11.9694 0.600092 8.53835 -89.7005 9.79423 1.33185 0.488896 -1.87609 1.35209 0.429788 -24.4147 1.12334 0.866598 -4.40208 1.12336 0.866606 84.7484 -44.2146 -110.791 36.4677 -1.20115 17.7603 -11.8482 3.6655 -102.535 -30.7713 -1.11699 -0.694784 -96.7271 -40.7893 65.5268 -43.2071 11.2346 33.6979 6.85057 -2.23589 -81.5384 40.0613 3.22786 4.16282 -10.5229 -3.93771 -1.60184 13.5806 -3.51173 2.27506 
